<svg xmlns="http://www.w3.org/2000/svg" fill="none" viewBox="0 0 157 57"><path fill="url(#a)" stroke="#467619" stroke-width=".2" d="M28.47 21.1a10.9 10.9 0 0 0-10.9 10.8H28.4a10.9 10.9 0 0 0 10.9-10.8H28.47Z"/><path fill="#262626" stroke="#262626" d="m1 12 .02 43.5c11.1-.66 13.94-7.28 13.94-11.5V14C15.53 3.32 26.26.58 30.56.5h-15.4C4.51.73.87 8.25 1 12Z"/><path fill="url(#b)" stroke="#467619" stroke-width=".2" d="M37.35 13.9h-21.8c.03-5.34 2.07-8.75 4.88-10.85C23.26.95 26.87.16 30 .1h22.23c-.03 5.58-2.5 9.02-5.58 11.07a17.53 17.53 0 0 1-9.3 2.73Z"/><mask id="c" fill="#fff"><path d="M51.98 48h-7.83l-.16-19A17.34 17.34 0 0 1 33 38v18h11.17c6.6 0 8.04-5.38 7.8-8Z"/></mask><path fill="#262626" d="M51.98 48h-7.83l-.16-19A17.34 17.34 0 0 1 33 38v18h11.17c6.6 0 8.04-5.38 7.8-8Z"/><path fill="#262626" d="M44.15 48h-1v1h1v-1Zm7.83 0 1-.1-.1-.9h-.9v1ZM33 56h-1v1h1v-1Zm0-18-.22-.97-.78.17v.8h1Zm10.99-9h1l-1.9-.46.9.46Zm.16 20h7.83v-2h-7.83v2Zm6.83-.9a6.94 6.94 0 0 1-1.17 4.31c-.96 1.4-2.66 2.59-5.64 2.59v2c3.61 0 5.94-1.5 7.29-3.45a8.93 8.93 0 0 0 1.51-5.64l-1.99.18ZM44.17 55H33v2h11.17v-2ZM34 56V38h-2v18h2Zm8.99-27 .16 19h2l-.16-19h-2Zm-9.77 9.97a18.3 18.3 0 0 0 11.65-9.51l-1.77-.92a16.34 16.34 0 0 1-10.32 8.49l.44 1.94Z" mask="url(#c)"/><path fill="#262626" d="M57 56c8.72 0 12-1.98 12-6.5V29c-8.72 0-12 1.48-12 6v21Z"/><path fill="#262626" stroke="#262626" d="M91.9 55.5H74.5V34.27c0-1.77.59-3.61 2.38-4.37h.01a4.66 4.66 0 0 1 2-.4H90.7c1.75 0 3.35.53 4.58 1.4v.01c1.24.84 2 1.97 2.34 3.17a5.14 5.14 0 0 1-.28 3.64 5.82 5.82 0 0 1-2.03 2.4h-.01c-.44.32-.93.59-1.46.8l-1.4.59 1.47.37c3.25.8 5.59 3.52 5.59 6.68 0 3.42-2.73 6.31-6.38 6.85-.4.06-.8.09-1.22.09Zm-7.04-10.9h-.5v5.27h2.65a2.64 2.64 0 0 0 2.64-2.63 2.64 2.64 0 0 0-2.64-2.63h-2.15Zm-.5-4.94v.5h1.96c1.42 0 2.62-1.1 2.62-2.52 0-1.4-1.2-2.5-2.62-2.5h-1.96v4.52Zm31.98 15.84H105.5V34.18c0-1.7.86-3.5 2.65-4.28a4.42 4.42 0 0 1 1.94-.4h13.38v6.78h-8.1v3.29h7.17v5.52h-7.17v3.51h8.13c.08 2.8-1 4.5-2.37 5.5a8.01 8.01 0 0 1-4.78 1.4h-.01Z"/><path fill="#262626" d="M139.98 43.47v6.1c0 4.36-2.48 6.43-10.98 6.43V35.51c0-4.35 2.63-6.5 11.06-6.51h.04l5.96 11.43v-5c0-4.36 2.44-6.43 10.94-6.43v20.56c0 4.33-2.44 6.4-10.75 6.44h-.31l-5.96-12.53Z"/><defs><linearGradient id="a" x1="37.22" x2="19.7" y1="46.87" y2="40.45" gradientUnits="userSpaceOnUse"><stop stop-color="#fff"/><stop offset="1" stop-color="#80DC25"/></linearGradient><linearGradient id="b" x1="130.7" x2="116.81" y1="-40.57" y2="-59.2" gradientUnits="userSpaceOnUse"><stop stop-color="#fff"/><stop offset="1" stop-color="#80DC25"/></linearGradient></defs></svg>